IKResults
version=1
nRows=5
nColumns=63
inDegrees=yes

Units are S.I. units (second, meters, Newtons, ...)
If the header above contains a line with 'inDegrees', this indicates whether rotational values are in degrees (yes) or radians (no).

endheader
time	pelvis_tilt	pelvis_list	pelvis_rotation	pelvis_tx	pelvis_ty	pelvis_tz	hip_flexion_r	hip_adduction_r	hip_rotation_r	knee_angle_r	knee_angle_r_beta	ankle_angle_r	subtalar_angle_r	mtp_angle_r	hip_flexion_l	hip_adduction_l	hip_rotation_l	knee_angle_l	knee_angle_l_beta	ankle_angle_l	subtalar_angle_l	mtp_angle_l	L5_S1_Flex_Ext	L5_S1_Lat_Bending	L5_S1_axial_rotation	L4_L5_Flex_Ext	L4_L5_Lat_Bending	L4_L5_axial_rotation	L3_L4_Flex_Ext	L3_L4_Lat_Bending	L3_L4_axial_rotation	L2_L3_Flex_Ext	L2_L3_Lat_Bending	L2_L3_axial_rotation	L1_L2_Flex_Ext	L1_L2_Lat_Bending	L1_L2_axial_rotation	L1_T12_Flex_Ext	L1_T12_Lat_Bending	L1_T12_axial_rotation	Abs_r3	Abs_r2	Abs_r1	Abs_t1	Abs_t2	neck_flexion	neck_bending	neck_rotation	arm_flex_r	arm_add_r	arm_rot_r	elbow_flex_r	pro_sup_r	wrist_flex_r	wrist_dev_r	arm_flex_l	arm_add_l	arm_rot_l	elbow_flex_l	pro_sup_l	wrist_flex_l	wrist_dev_l
      0.03333333	     -4.81299368	      5.27632325	    -40.06616364	     -0.61289460	      0.93223189	     -0.61260929	      1.04940217	     -5.69312506	     -3.60867682	      1.04121094	      0.01817256	     13.81170497	    -14.87359975	      0.00000000	      5.25548748	     -6.87587092	    -16.06520857	     11.97328217	      0.20897320	     19.70952559	     -5.66739054	      0.00000000	      0.52596181	     -0.36355125	      1.68633600	      0.97676367	     -0.48352316	      1.79173200	      0.86410265	     -0.88393851	      1.79173200	      0.60112175	     -0.88393851	      1.47554400	      0.48840813	     -0.74135371	      1.37014800	      0.30053458	     -0.56314089	      1.26475200	      3.75689258	     -4.11256445	      9.37889493	      0.00000000	      0.00000000	     22.07671104	      2.72191349	    -12.39597175	     -6.39676247	     -4.12382735	     -2.13373608	     18.10658366	     89.99559364	      0.00000000	      0.00000000	     -1.49802924	    -11.92312361	     10.38010302	     27.53615113	     89.99559364	      0.00000000	      0.00000000
      0.06666667	     -4.80508345	      5.28678027	    -40.07851225	     -0.61301760	      0.93222639	     -0.61255610	      1.06755040	     -5.69775887	     -3.60723979	      1.05548645	      0.01842171	     13.82791791	    -14.86725031	      0.00000000	      5.26633171	     -6.87439451	    -16.06753714	     11.97554885	      0.20901276	     19.71028924	     -5.66554969	      0.00000000	      0.52170787	     -0.36370244	      1.68356309	      0.96886368	     -0.48372424	      1.78878578	      0.85711386	     -0.88430610	      1.78878578	      0.59625992	     -0.88430610	      1.47311771	      0.48445793	     -0.74166201	      1.36789501	      0.29810388	     -0.56337507	      1.26267232	      3.72650713	     -4.11427470	      9.36347285	      0.00000000	      0.00000000	     22.05715454	      2.72260352	    -12.39958620	     -6.41226951	     -4.15791378	     -2.13876047	     18.09737378	     89.99559364	      0.00000000	      0.00000000	     -1.49460242	    -11.90849408	     10.38179033	     27.54557277	     89.99559364	      0.00000000	      0.00000000
      0.10000000	     -4.77912391	      5.21431360	    -40.01579616	     -0.61329518	      0.93228991	     -0.61297630	      1.00654479	     -5.66289884	     -3.53635522	      1.03938488	      0.01814069	     13.96424953	    -14.88100089	      0.00000000	      5.35829043	     -6.95512131	    -16.16232085	     12.19578170	      0.21285655	     19.82521444	     -5.59362828	      0.00000000	      0.50039410	     -0.35521246	      1.65779872	      0.92928189	     -0.47243257	      1.76141114	      0.82209747	     -0.86366357	      1.76141114	      0.57190042	     -0.86366357	      1.45057388	      0.46466596	     -0.72434925	      1.34696146	      0.28592519	     -0.55022410	      1.24334904	      3.57426505	     -4.01823439	      9.22017913	      0.00000000	      0.00000000	     21.68101973	      2.57857856	    -12.68958568	     -6.15716364	     -4.25857594	     -2.22429599	     17.68828393	     89.99559364	      0.00000000	      0.00000000	     -1.49615994	    -11.81134507	     10.32095876	     27.73241442	     89.99559364	      0.00000000	      0.00000000
      0.13333333	     -4.77961517	      5.22320225	    -39.98691768	     -0.61360407	      0.93227519	     -0.61348848	      1.04782396	     -5.68421486	     -3.49571651	      1.02855118	      0.01795160	     14.07520068	    -14.88521137	      0.00000000	      5.44390959	     -6.94830594	    -16.21659636	     12.22932749	      0.21344203	     19.83626320	     -5.56406819	      0.00000000	      0.48345443	     -0.35009622	      1.64276862	      0.89782323	     -0.46562798	      1.74544166	      0.79426729	     -0.85122396	      1.74544166	      0.55254007	     -0.85122396	      1.43742254	      0.44893579	     -0.71391622	      1.33474950	      0.27624586	     -0.54229905	      1.23207647	      3.45326667	     -3.96035852	      9.13658624	      0.00000000	      0.00000000	     21.46803878	      2.56927825	    -12.78543196	     -6.03154964	     -4.42910892	     -2.27545988	     17.59781748	     89.99559364	      0.00000000	      0.00000000	     -1.42390683	    -11.70719908	     10.31332331	     27.83402860	     89.99559364	      0.00000000	      0.00000000
      0.16666667	     -4.75516788	      5.05473938	    -39.74146063	     -0.61423003	      0.93254722	     -0.61383326	      0.92691484	     -5.53850749	     -3.58370658	      1.06525925	      0.01859228	     14.12614894	    -14.93864083	      0.00000000	      5.60095036	     -7.18897012	    -16.38433130	     12.62598447	      0.22036500	     20.06497844	     -5.06079674	      0.00000000	      0.44111943	     -0.33941123	      1.57082595	      0.81920289	     -0.45141694	      1.66900257	      0.72471511	     -0.82524447	      1.66900257	      0.50415540	     -0.82524447	      1.37447270	      0.40962350	     -0.69212739	      1.27629608	      0.25205564	     -0.52574800	      1.17811946	      3.15087198	     -3.83948775	      8.73646266	      0.00000000	      0.00000000	     20.70931256	      2.13692448	    -13.52947591	     -5.43456905	     -4.42843231	     -2.59603835	     16.61576851	     89.99559364	      0.00000000	      0.00000000	     -1.41079255	    -11.68154128	     10.10458516	     28.06834800	     89.99559364	      0.00000000	      0.00000000
